<?xml version="1.0" standalone="no"?><!DOCTYPE svg PUBLIC "-//W3C//DTD SVG 1.1//EN" "http://www.w3.org/Graphics/SVG/1.1/DTD/svg11.dtd"><svg t="1651202253338" class="icon" viewBox="0 0 1024 1024" version="1.1" xmlns="http://www.w3.org/2000/svg" p-id="2718" xmlns:xlink="http://www.w3.org/1999/xlink" width="24" height="24"><defs><style type="text/css">@font-face { font-family: feedback-iconfont; src: url("//at.alicdn.com/t/font_1031158_u69w8yhxdu.woff2?t=1630033759944") format("woff2"), url("//at.alicdn.com/t/font_1031158_u69w8yhxdu.woff?t=1630033759944") format("woff"), url("//at.alicdn.com/t/font_1031158_u69w8yhxdu.ttf?t=1630033759944") format("truetype"); }
</style></defs><path d="M512.392533 68.266667C314.760533 68.266667 154.4704 219.648 153.6 408.4736l0.085333 7.850667c1.536 65.160533 22.272 127.0784 59.460267 180.258133l4.010667 5.614933 1.826133 2.952534 1.6896 2.525866c1.143467 1.621333 2.3552 3.157333 3.703467 4.676267l0.3072 0.341333 233.335466 296.021334a68.266667 68.266667 0 0 0 11.349334 11.3664l3.003733 2.218666a68.266667 68.266667 0 0 0 92.859733-13.585066L798.5664 612.693333l-1.6384 1.774934c2.901333-2.9696 5.12-5.905067 7.3216-9.301334l2.1504-3.464533c40.482133-55.0912 63.146667-122.026667 64-192.631467C870.4 220.091733 709.632 68.266667 512.392533 68.266667z m0 68.266666C672.785067 136.533333 802.133333 258.679467 802.133333 408.644267a264.1408 264.1408 0 0 1-51.643733 153.9072l-3.618133 5.632a11.895467 11.895467 0 0 1 1.3824-1.604267l-2.474667 2.798933-234.154667 297.079467-234.154666-297.079467-1.3312-1.570133-2.542934-4.027733 1.9968 3.413333-0.170666-0.170667 0.324266 0.443734C239.616 517.461333 221.866667 464.4352 221.866667 408.644267 222.549333 258.372267 351.573333 136.533333 512.392533 136.533333z" fill="#444444" p-id="2719"></path><path d="M512 261.0176a153.6 153.6 0 1 0 0 307.2 153.6 153.6 0 0 0 0-307.2z m0 68.266667a85.333333 85.333333 0 1 1 0 170.666666 85.333333 85.333333 0 0 1 0-170.666666z" fill="#00B386" p-id="2720"></path></svg>