<?xml version="1.0" standalone="no"?><!DOCTYPE svg PUBLIC "-//W3C//DTD SVG 1.1//EN" "http://www.w3.org/Graphics/SVG/1.1/DTD/svg11.dtd"><svg t="1651217243496" class="icon" viewBox="0 0 1024 1024" version="1.1" xmlns="http://www.w3.org/2000/svg" p-id="3150" width="24" height="24" xmlns:xlink="http://www.w3.org/1999/xlink"><defs><style type="text/css">@font-face { font-family: feedback-iconfont; src: url("//at.alicdn.com/t/font_1031158_u69w8yhxdu.woff2?t=1630033759944") format("woff2"), url("//at.alicdn.com/t/font_1031158_u69w8yhxdu.woff?t=1630033759944") format("woff"), url("//at.alicdn.com/t/font_1031158_u69w8yhxdu.ttf?t=1630033759944") format("truetype"); }
</style></defs><path d="M512 902.4a390.4 390.4 0 1 1 0-780.8 390.4 390.4 0 0 1 0 780.8z m0-64a326.4 326.4 0 1 0 0-652.8 326.4 326.4 0 0 0 0 652.8z" fill="#ffffff" p-id="3151"></path><path d="M870.4 544a32 32 0 1 1 0-64h102.4a32 32 0 1 1 0 64h-102.4z" fill="#ffffff" p-id="3152"></path><path d="M512 512m-204.8 0a204.8 204.8 0 1 0 409.6 0 204.8 204.8 0 1 0-409.6 0Z" fill="#ffffff" p-id="3153"></path><path d="M544 153.6a32 32 0 1 1-64 0V51.2a32 32 0 1 1 64 0v102.4zM480 870.4a32 32 0 1 1 64 0v102.4a32 32 0 1 1-64 0v-102.4zM153.6 480a32 32 0 1 1 0 64H51.2a32 32 0 1 1 0-64h102.4z" fill="#ffffff" p-id="3154"></path></svg>